<svg width="24" height="25" viewBox="0 0 24 25" fill="none" xmlns="http://www.w3.org/2000/svg">
<path d="M20.4853 16.3155C19.1783 15.0085 17.6226 14.041 15.9253 13.4552C17.7432 12.2032 18.9375 10.1077 18.9375 7.73828C18.9375 3.91295 15.8253 0.800781 12 0.800781C8.17467 0.800781 5.0625 3.91295 5.0625 7.73828C5.0625 10.1077 6.25683 12.2032 8.07478 13.4552C6.37744 14.041 4.82175 15.0085 3.51473 16.3155C1.24823 18.582 0 21.5955 0 24.8008H1.875C1.875 19.2178 6.41705 14.6758 12 14.6758C17.583 14.6758 22.125 19.2178 22.125 24.8008H24C24 21.5955 22.7518 18.582 20.4853 16.3155ZM12 12.8008C9.20855 12.8008 6.9375 10.5298 6.9375 7.73828C6.9375 4.94678 9.20855 2.67578 12 2.67578C14.7915 2.67578 17.0625 4.94678 17.0625 7.73828C17.0625 10.5298 14.7915 12.8008 12 12.8008Z" fill="#252D35"/>
</svg>
